<svg xmlns="http://www.w3.org/2000/svg" viewBox="0 0 293 293"><defs><style>.cls-1,.cls-2{fill:#fefefe;}.cls-1{fill-rule:evenodd;}</style></defs><g id="Camada_2" data-name="Camada 2"><g id="Camada_1-2" data-name="Camada 1"><g id="Camada_1-3" data-name="Camada_1"><g id="_2097376135568" data-name=" 2097376135568"><polygon class="cls-1" points="170 72.01 185.73 72.01 185.66 91.5 200.98 91.5 201.08 72.01 218.44 72.01 218.57 91.8 233.95 91.5 233.96 72.01 250.41 72.01 250.41 108.56 170 108.56 170 72.01"/><polygon class="cls-1" points="42.59 72.01 58.32 72.01 58.26 91.5 73.57 91.5 73.67 72.01 91.03 72.01 91.17 91.8 106.54 91.5 106.56 72.01 123 72.01 123 108.56 42.59 108.56 42.59 72.01"/><path class="cls-1" d="M52.08,210.2H240.93c3.5,0,6.35,2.42,6.35,5.4h0c0,3-2.85,5.39-6.35,5.39H52.08c-3.51,0-6.35-2.41-6.35-5.39h0C45.73,212.62,48.57,210.2,52.08,210.2Z"/><path class="cls-1" d="M51.29,208.11h82.16V173.65c1.61-.18.48-.13,1-.39l.38-.22.5-.27c.52-.38.14,1,.46-.59.16-.79,0-.82-.26-1.31h1.4v-1.39h1v-1h1.74v-1h2.44v-1h8.7v1c5.37,0-.76,1,4.18,1v1h1v1.39h1.05V173c2.69-.58,0,.42,2.43.69v34.46h82.16V111.69h-63v37.59H165.82V135c0-.8-.24-1-1-1H154c-.81,0-1.05.24-1.05,1v14.27H139.71V134H128.22c-.8,0-1,.24-1,1v14.27H114.3V111.69h-63v96.42Z"/><rect class="cls-2" x="75.07" y="118.3" width="8.23" height="21.38"/><rect class="cls-2" x="75.07" y="118.3" width="8.23" height="21.38"/><rect class="cls-2" x="206.49" y="118.3" width="8.23" height="21.38"/></g><path class="cls-1" d="M146.5,0A146.5,146.5,0,1,1,0,146.5,146.5,146.5,0,0,1,146.5,0Zm0,7.15A139.35,139.35,0,1,1,7.15,146.5,139.35,139.35,0,0,1,146.5,7.15Z"/></g></g></g></svg>
