<svg xmlns="http://www.w3.org/2000/svg" viewBox="0 0 101.35 105"><defs><style>.cls-1,.cls-2{fill:#fefefe;fill-rule:evenodd;}.cls-1{fill-opacity:0.8;}</style></defs><g id="Camada_2" data-name="Camada 2"><g id="Camada_1-2" data-name="Camada 1"><g id="Camada_1-3" data-name="Camada_1"><g id="_1765979701264" data-name=" 1765979701264"><path class="cls-1" d="M45.59,75.27h-30V39.05H38.68V53.39h4.59l0-5.72h5.1v5.72h4.77V47.67h4.19v5.72h5.36V39.05H85.45V75.28H55.64V64.66a5.14,5.14,0,0,0-5-5.21h0a5.14,5.14,0,0,0-5,5.21V75.27ZM72.11,41h4V49.9h-4ZM24.84,41h4V49.9h-4Z"/><polygon class="cls-1" points="12.74 24.31 17.93 24.31 17.93 30.97 23.67 30.97 23.67 24.31 30.1 24.31 30.11 30.97 36.1 30.97 36.11 24.31 41.38 24.31 41.38 37.09 12.74 37.09 12.74 24.31"/><polygon class="cls-1" points="59.97 24.31 65.16 24.31 65.16 30.97 70.9 30.97 70.9 24.31 77.33 24.31 77.34 30.97 83.33 30.97 83.34 24.31 88.61 24.31 88.61 37.09 59.97 37.09 59.97 24.31"/><path class="cls-1" d="M15.68,76.79H85.6a1.92,1.92,0,0,1,1.89,1.95h0a1.93,1.93,0,0,1-1.89,2H15.68a1.92,1.92,0,0,1-1.88-2h0A1.91,1.91,0,0,1,15.68,76.79Z"/></g><path class="cls-2" d="M50.68,0c28,0,50.67,23.51,50.67,52.5S78.66,105,50.68,105,0,81.5,0,52.5,22.69,0,50.68,0Zm0,3.15C77,3.15,98.31,25.24,98.31,52.5S77,101.85,50.68,101.85,3,79.76,3,52.5,24.37,3.15,50.68,3.15Z"/></g></g></g></svg>