<?xml version="1.0" encoding="UTF-8"?>
<!DOCTYPE svg PUBLIC "-//W3C//DTD SVG 1.1//EN" "http://www.w3.org/Graphics/SVG/1.1/DTD/svg11.dtd">
<!-- Creator: CorelDRAW 2020 (64 Bit) -->
<svg xmlns="http://www.w3.org/2000/svg" xml:space="preserve" width="1280px" height="720px" version="1.1" style="shape-rendering:geometricPrecision; text-rendering:geometricPrecision; image-rendering:optimizeQuality; fill-rule:evenodd; clip-rule:evenodd"
viewBox="0 0 1280 720"
 xmlns:xlink="http://www.w3.org/1999/xlink"
 xmlns:xodm="http://www.corel.com/coreldraw/odm/2003">
 <defs>
  <style type="text/css">
   <![CDATA[
    .str0 {stroke:#FEFEFE;stroke-width:2.36;stroke-miterlimit:22.9256}
    .fil1 {fill:white}
    .fil0 {fill:white;fill-rule:nonzero}
   ]]>
  </style>
    <clipPath id="id0">
     <rect x="344.88" y="281.95" width="157.42" height="157.61"/>
    </clipPath>
 </defs>
 <g id="Camada_x0020_1">
  <metadata id="CorelCorpID_0Corel-Layer"/>
  <g id="_2096853474480">
   <g style="clip-path:url(#id0)">
    <image x="344.88" y="281.95" width="157.41" height="157.61" xlink:href="Logo Canal_Images\Logo Canal_ImgID1.png"/>
   </g>
   <path class="fil0" d="M569.83 321.51c3.54,-8.91 6.28,-16.02 8.23,-21.3 1.03,-2.79 2.05,-5.6 3.05,-8.41 1.38,-3.33 2.87,-5.91 4.47,-7.72 1.06,-1.19 2.33,-1.79 3.82,-1.79 1.34,0 2.51,0.47 3.54,1.39 1.01,0.93 1.51,2.06 1.51,3.39 0,0.94 -0.31,1.88 -0.95,2.79 -1.27,1.83 -2.44,4.04 -3.5,6.61 -0.03,0.1 -0.91,2.43 -2.6,6.98 -2.12,5.42 -5.27,13.55 -9.45,24.4 -1.08,2.83 -2.4,5.67 -3.98,8.52 -1.01,1.82 -2.47,2.74 -4.41,2.74 -2.44,0 -4.14,-1.16 -5.11,-3.45 -2.86,-6.83 -6.03,-16.67 -9.52,-29.53 -0.97,-3.17 -1.94,-6.34 -2.93,-9.5 -1.31,-4.41 -1.97,-7.48 -1.97,-9.2 0,-1.38 0.52,-2.52 1.55,-3.45 0.99,-0.84 2.14,-1.26 3.47,-1.26 2.25,0 3.83,1.18 4.72,3.52 0.47,2.05 0.94,4.08 1.4,6.1 0.77,2.52 1.89,6.33 3.34,11.4 1.83,6.71 3.61,12.63 5.32,17.77z"/>
   <path id="1" class="fil0" d="M635.21 291.09c-0.47,0 -0.96,-0.08 -1.48,-0.21 -3.79,-1.02 -7.49,-1.52 -11.09,-1.52 -1.76,0 -3.65,0.13 -5.67,0.4 -2.03,0.28 -4.17,0.7 -6.45,1.25 0,3.14 -0.1,7.8 -0.29,13.99 1.31,-0.09 5.9,-0.51 13.77,-1.28 4.48,-0.45 7.32,-0.66 8.52,-0.66 1.38,0 2.57,0.44 3.56,1.32 0.98,0.88 1.48,2.05 1.48,3.51 0,2.8 -1.49,4.38 -4.47,4.76 -1.89,0.13 -4.69,0.36 -8.43,0.68 -3.34,0.36 -8.36,0.81 -15.08,1.33 -0.14,2.98 -0.22,5.38 -0.22,7.2 0,4.61 0.27,7.21 0.8,7.85 0.26,0.3 1.74,0.46 4.44,0.46 1.46,0 3.66,-0.04 6.59,-0.11 2.94,-0.07 5.13,-0.11 6.6,-0.11 0.46,0 1.15,-0.07 2.07,-0.22 0.92,-0.13 1.6,-0.2 2.05,-0.2 1.36,0 2.52,0.38 3.48,1.17 1.11,0.86 1.66,2.09 1.66,3.66 0,2.63 -1.37,4.21 -4.12,4.72 -2.36,0.45 -7.22,0.68 -14.63,0.68 -7.65,0 -12.65,-1.04 -14.97,-3.1 -2.56,-2.28 -3.85,-7.21 -3.85,-14.79 0,-3.14 0.23,-7.87 0.69,-14.18 0.46,-6.29 0.68,-11 0.68,-14.13 0,-0.83 -0.1,-2.04 -0.32,-3.64 -0.22,-1.61 -0.32,-2.82 -0.32,-3.65 0,-3.57 1.64,-5.35 4.92,-5.35 1.02,0 1.97,0.29 2.85,0.88 2.72,-0.68 5.3,-1.19 7.75,-1.53 2.45,-0.34 4.76,-0.5 6.95,-0.5 5.9,0 10.62,0.67 14.17,2.02 2.15,0.81 3.23,2.3 3.23,4.45 0,1.22 -0.42,2.3 -1.27,3.24 -0.94,1.07 -2.13,1.61 -3.6,1.61z"/>
   <path id="2" class="fil0" d="M696.86 327.64c0,1.17 -0.19,3.02 -0.59,5.56 -0.47,3.02 -2.18,4.54 -5.14,4.54 -1.65,0 -3.5,-0.93 -5.57,-2.78 -9.03,-8.15 -19.24,-19.56 -30.59,-34.25 -0.15,6.11 -0.22,9.86 -0.22,11.24 0,1.86 0.04,4.65 0.11,8.39 0.07,3.73 0.11,6.52 0.11,8.37 0,6.94 -1.68,10.4 -5.05,10.4 -1.72,0 -3.08,-0.53 -4.11,-1.59 -0.91,-0.94 -1.37,-2.08 -1.37,-3.41 0,-0.94 0.07,-2.36 0.23,-4.27 0.14,-1.9 0.22,-3.31 0.22,-4.25 0,-1.38 0.04,-3.46 0.14,-6.24 0.08,-2.76 0.13,-4.84 0.13,-6.22 0,-1.48 -0.03,-3.72 -0.09,-6.7 -0.08,-2.98 -0.11,-5.21 -0.11,-6.69 0,-1.41 -0.13,-3.51 -0.4,-6.3 -0.27,-2.8 -0.41,-4.9 -0.41,-6.31 0,-1.4 0.6,-2.65 1.82,-3.76 1.2,-1.1 2.58,-1.66 4.13,-1.66 1.74,0 3.67,1.5 5.77,4.51 10.66,15.2 21.17,27.6 31.55,37.19 0.02,-0.74 0.03,-2.53 0.03,-5.34 0,-11.57 -0.11,-19.36 -0.34,-23.4 -0.04,-0.68 -0.19,-1.95 -0.44,-3.8 -0.23,-1.65 -0.34,-2.93 -0.34,-3.87 0,-3.23 1.71,-4.85 5.11,-4.85 3.81,0 5.71,5.9 5.71,17.7 0,0.25 -0.02,2.1 -0.07,5.55 -0.15,11.92 -0.22,19.34 -0.22,22.24z"/>
   <path id="3" class="fil0" d="M743.85 337.38c-1.85,-0.07 -3.73,-2.26 -5.6,-6.56 -1.24,-2.78 -2.31,-5.98 -3.2,-9.59 -1.74,0.26 -4.6,0.53 -8.55,0.79 -3.73,0.26 -6.58,0.58 -8.55,0.94 -1.09,2.58 -2.97,6.47 -5.66,11.67 -1.03,1.69 -2.45,2.53 -4.28,2.53 -1.28,0 -2.45,-0.44 -3.47,-1.32 -1.03,-0.88 -1.55,-2.01 -1.55,-3.37 0,-1.2 1.72,-5.26 5.15,-12.19 -0.33,-0.74 -0.46,-1.42 -0.43,-2.06 0.1,-1.12 1.24,-2.01 3.43,-2.64 3.34,-5.78 7.05,-11.78 11.15,-17.98 5.88,-8.91 9.51,-13.36 10.86,-13.36 2.57,0 4.31,1.56 5.17,4.68 0.47,2.52 1.21,6.29 2.22,11.31 1.43,6.77 3.18,14.51 5.24,23.23 0.17,0.65 0.77,2.2 1.81,4.65 0.84,2.02 1.26,3.53 1.26,4.54 0,1.36 -0.51,2.5 -1.53,3.43 -1.02,0.91 -2.19,1.34 -3.47,1.3zm-13.12 -36.15c-1.83,3.15 -4.35,7.44 -7.58,12.86 1.06,-0.23 2.71,-0.42 4.93,-0.56 2.63,-0.16 4.28,-0.28 4.96,-0.38 -0.56,-3.05 -1.33,-7.03 -2.31,-11.92z"/>
   <path id="4" class="fil0" d="M798.2 294.04c-1.83,0 -4.7,-0.12 -8.58,-0.37 -3.75,-0.25 -6.59,-0.37 -8.58,-0.35 0.1,2.68 0.41,7.45 0.94,14.3 0.49,6.06 0.73,10.85 0.73,14.37 0,0.81 0.09,1.99 0.26,3.56 0.15,1.58 0.24,2.77 0.24,3.57 0,1.76 -0.36,3.34 -1.09,4.75 -0.96,1.81 -2.33,2.71 -4.11,2.71 -1.28,0 -2.41,-0.4 -3.4,-1.23 -1.09,-0.92 -1.64,-2.07 -1.64,-3.45 0,-0.33 0.04,-0.83 0.14,-1.49 0.1,-0.68 0.15,-1.19 0.15,-1.54 0,-1.08 -0.08,-2.72 -0.23,-4.89 -0.15,-2.19 -0.23,-3.84 -0.23,-4.94 0,-3.15 -0.24,-7.4 -0.73,-12.79 -0.56,-6.17 -0.88,-10.44 -0.98,-12.78l-1.82 0c-5.23,0 -9.38,-0.36 -12.44,-1.09 -2.61,-0.63 -3.91,-2.16 -3.91,-4.6 0,-1.19 0.42,-2.27 1.26,-3.22 1,-1.15 2.29,-1.67 3.89,-1.55 0.81,0.05 2.69,0.23 5.6,0.57 2.31,0.24 4.2,0.37 5.63,0.37 1.43,0 3.57,-0.03 6.43,-0.07 2.85,-0.05 4.99,-0.08 6.42,-0.08 1.79,0 4.47,0.12 8.04,0.36 3.57,0.25 6.24,0.37 8.03,0.37 1.4,0 2.58,0.45 3.53,1.36 0.95,0.92 1.43,2.04 1.43,3.37 0,1.35 -0.48,2.48 -1.43,3.4 -0.95,0.93 -2.14,1.38 -3.55,1.38z"/>
   <path id="5" class="fil0" d="M843.39 330.19c-1.71,2.33 -3.78,4.27 -6.2,5.82 -2.96,1.87 -6,2.81 -9.12,2.81 -6,0 -10.45,-1.13 -13.37,-3.39 -6.15,-4.77 -9.23,-13.06 -9.23,-24.86 0,-1.13 0.05,-2.82 0.16,-5.05 0.1,-2.24 0.16,-3.92 0.16,-5.05 0,-0.9 0.01,-2.23 0.06,-4.02 0.03,-1.79 0.06,-3.13 0.06,-4.03 0,-1.85 0.33,-3.58 1.02,-5.23 0.92,-2.16 2.21,-3.24 3.87,-3.24 1.3,0 2.44,0.41 3.42,1.24 1.1,0.87 1.64,1.99 1.64,3.37 0,1.31 -0.01,3.3 -0.04,5.94 -0.02,2.66 -0.04,4.65 -0.04,5.97 0,1.11 -0.06,2.78 -0.18,5 -0.12,2.22 -0.18,3.9 -0.18,4.99 0,3.56 0.43,6.87 1.28,9.93 0.98,3.64 2.43,6.18 4.32,7.64 1,0.76 3.34,1.15 7.06,1.2 6.2,0.1 10.38,-5.18 12.54,-15.83 1.13,-5.51 1.7,-13.25 1.7,-23.23 0,-1.31 0.38,-2.57 1.16,-3.79 1.05,-1.63 2.55,-2.43 4.5,-2.43 1.6,0 2.8,0.59 3.59,1.75 0.62,0.88 0.92,1.84 0.92,2.9 0,9.26 -0.44,16.49 -1.3,21.68 -1.32,8 -3.92,14.64 -7.8,19.91z"/>
   <path id="6" class="fil0" d="M875.98 338.46c-5.95,0 -10.64,-1.32 -14.06,-3.97 -2.89,-2.21 -4.33,-4.74 -4.33,-7.63 0,-1.48 0.45,-2.7 1.34,-3.68 0.89,-0.97 2.12,-1.45 3.69,-1.45 2.11,0 3.65,1.08 4.64,3.24 1.33,2.89 4.35,4.33 9.06,4.33 4.02,0 7.91,-0.88 11.68,-2.64 3.9,-1.8 5.86,-3.8 5.86,-5.96 0,-2.96 -1.21,-4.91 -3.65,-5.84 -1.73,-0.69 -5.21,-1.08 -10.43,-1.2 -4.05,-0.1 -7.68,-0.86 -10.89,-2.3 -4.34,-1.95 -6.47,-4.73 -6.39,-8.38 0.07,-4.58 2.51,-8.77 7.3,-12.59 4.81,-3.81 10.11,-5.72 15.9,-5.72 2.3,0 5.13,0.53 8.5,1.59 4.19,1.31 6.29,2.83 6.29,4.54 0,1.22 -0.42,2.31 -1.26,3.24 -0.93,1.06 -2.15,1.59 -3.61,1.59 -1.11,0 -2.76,-0.24 -4.94,-0.72 -2.19,-0.48 -3.85,-0.72 -4.98,-0.72 -3.02,0.02 -5.89,0.75 -8.6,2.18 -2.82,1.47 -4.22,3.06 -4.22,4.77 0,0.91 0.43,1.64 1.28,2.22 0.86,0.57 2.14,0.98 3.85,1.22 3,0.17 6,0.33 8.96,0.49 5.21,0.4 9.33,1.87 12.36,4.4 3.33,2.82 4.99,6.71 4.99,11.68 0,6.05 -3.45,10.64 -10.34,13.75 -5.25,2.37 -11.25,3.56 -18,3.56z"/>
   <path id="7" class="fil0" d="M580.43 395.1c-1.13,0 -4.22,-0.32 -9.27,-0.94 -0.31,4.31 -0.47,10.06 -0.47,17.22l-0.03 15.8c3.12,-0.07 6.29,-0.11 9.53,-0.11 1.4,0 2.57,0.47 3.49,1.42 0.93,0.94 1.4,2.07 1.4,3.38 0,1.32 -0.47,2.44 -1.42,3.36 -0.95,0.93 -2.14,1.4 -3.58,1.4 -1.35,0 -3.37,0.02 -6.05,0.08 -2.69,0.06 -4.7,0.09 -6.04,0.09 -1.59,0 -3.97,0.2 -7.13,0.6 -3.16,0.39 -5.54,0.6 -7.13,0.6 -1.44,0 -2.63,-0.46 -3.58,-1.38 -0.94,-0.93 -1.41,-2.05 -1.41,-3.37 0,-1.31 0.49,-2.43 1.49,-3.36 0.98,-0.94 2.23,-1.41 3.73,-1.41 1.71,0 3.96,-0.17 6.75,-0.5 -0.05,-2.78 -0.08,-8.09 -0.08,-15.95 0,-6.4 0.24,-12.5 0.72,-18.3l-7.64 0.14c-1.42,0 -2.6,-0.46 -3.54,-1.36 -0.95,-0.91 -1.43,-2.04 -1.43,-3.39 0,-1.37 0.45,-2.48 1.37,-3.35 0.84,-0.78 1.87,-1.24 3.1,-1.36 2,-0.18 5.48,-0.27 10.44,-0.27 4.46,0 10.2,0.48 17.23,1.44 2.8,0.4 4.2,2.02 4.2,4.87 0,1.5 -0.54,2.69 -1.63,3.55 -0.88,0.74 -1.89,1.1 -3.02,1.1z"/>
   <path id="8" class="fil0" d="M605.55 408.95c-1.05,3.8 -2.53,9.53 -4.44,17.21 -0.45,2.66 -0.88,5.29 -1.3,7.92 -0.96,3.33 -2.74,5 -5.34,5 -1.62,0 -2.9,-0.55 -3.84,-1.66 -0.81,-0.94 -1.2,-2.05 -1.2,-3.34 0,-3.81 0.81,-8.44 2.44,-13.9 2.41,-8.2 3.72,-12.74 3.91,-13.63 0.68,-3.62 1.37,-7.24 2.08,-10.85 1.06,-4.98 2.2,-8.3 3.44,-9.94 1.24,-1.66 2.79,-2.49 4.67,-2.49 2.14,0 3.72,1.08 4.73,3.25 0.93,2.04 1.94,6.21 3.03,12.53 1.02,6.13 2.56,12.73 4.6,19.79 2.68,-6.97 5.18,-14.61 7.47,-22.94l1.99 -8.1c1.27,-3.35 3.23,-5.03 5.89,-5.03 2.57,0 4.47,1.94 5.72,5.85 0.51,1.56 1.06,4.51 1.65,8.8 1.37,10.01 3.08,18.57 5.16,25.71 2.09,7.26 3.14,11.22 3.14,11.84 0,1.39 -0.56,2.55 -1.65,3.48 -1.03,0.86 -2.19,1.28 -3.49,1.28 -2.54,0 -4.44,-1.84 -5.68,-5.51l-2 -8.53c-1.14,-4.23 -2.36,-10.3 -3.7,-18.22 -1.05,3.14 -2.81,8.09 -5.26,14.82l-2.12 6.49c-0.86,2.56 -1.77,4.66 -2.71,6.3 -1.25,2.18 -2.99,3.28 -5.23,3.28 -2.21,0 -3.9,-1.3 -5.08,-3.91l-1.96 -6.55c-1.83,-6.02 -3.47,-12.33 -4.92,-18.95z"/>
   <path id="9" class="fil0" d="M665.2 417.16c-0.4,0 -1.39,-0.08 -2.96,-0.24 -0.1,3.28 -0.14,8.68 -0.14,16.18 0,1.25 -0.44,2.31 -1.31,3.2 -0.87,0.89 -1.99,1.34 -3.32,1.34 -1.35,0 -2.46,-0.45 -3.35,-1.34 -0.88,-0.9 -1.33,-1.97 -1.33,-3.2l0 -9.83c0,-3.63 0.23,-9.03 0.69,-16.17 0.43,-7.25 0.66,-12.66 0.68,-16.23 0.03,-6.11 1.74,-9.03 5.14,-8.77 0.8,-0.21 1.89,-0.37 3.3,-0.48 1.42,-0.1 3.12,-0.15 5.14,-0.15 4.59,0 8.91,1.49 12.95,4.47 4.48,3.34 6.71,7.4 6.71,12.2 0,6.01 -2.38,10.79 -7.13,14.33 -4.22,3.13 -9.25,4.69 -15.07,4.69zm1.73 -26.61c-0.76,0 -1.42,0 -2,0.02 -0.57,0.01 -1.07,0.04 -1.46,0.09 0,1.11 -0.02,2.77 -0.04,4.98 -0.04,2.62 -0.24,6.69 -0.61,12.22 1.19,0.19 1.99,0.29 2.39,0.29 3.65,0 6.69,-0.88 9.1,-2.62 2.58,-1.85 3.86,-4.32 3.86,-7.38 0,-2.01 -1.21,-3.79 -3.62,-5.34 -2.34,-1.5 -4.87,-2.26 -7.62,-2.26z"/>
   <path id="10" class="fil0" d="M728.01 391.56c-0.47,0 -0.96,-0.07 -1.48,-0.2 -3.79,-1.02 -7.5,-1.53 -11.09,-1.53 -1.77,0 -3.65,0.14 -5.67,0.41 -2.03,0.28 -4.17,0.7 -6.45,1.25 0,3.14 -0.1,7.8 -0.29,13.99 1.31,-0.1 5.9,-0.52 13.77,-1.29 4.48,-0.44 7.32,-0.66 8.52,-0.66 1.38,0 2.57,0.45 3.56,1.32 0.98,0.88 1.47,2.06 1.47,3.51 0,2.8 -1.49,4.39 -4.47,4.76 -1.88,0.13 -4.68,0.36 -8.42,0.69 -3.34,0.36 -8.36,0.8 -15.08,1.33 -0.15,2.98 -0.22,5.37 -0.22,7.2 0,4.6 0.27,7.21 0.79,7.85 0.27,0.3 1.75,0.45 4.45,0.45 1.45,0 3.65,-0.03 6.59,-0.11 2.94,-0.07 5.13,-0.1 6.59,-0.1 0.47,0 1.16,-0.07 2.08,-0.22 0.92,-0.13 1.6,-0.2 2.05,-0.2 1.35,0 2.52,0.38 3.48,1.16 1.11,0.87 1.66,2.09 1.66,3.67 0,2.63 -1.37,4.2 -4.12,4.72 -2.36,0.44 -7.23,0.67 -14.63,0.67 -7.65,0 -12.65,-1.03 -14.97,-3.1 -2.56,-2.27 -3.85,-7.21 -3.85,-14.78 0,-3.15 0.23,-7.87 0.69,-14.18 0.45,-6.3 0.68,-11.01 0.68,-14.13 0,-0.83 -0.1,-2.04 -0.32,-3.64 -0.22,-1.61 -0.33,-2.83 -0.33,-3.66 0,-3.57 1.65,-5.34 4.93,-5.34 1.02,0 1.97,0.28 2.85,0.87 2.71,-0.67 5.3,-1.19 7.75,-1.52 2.45,-0.34 4.76,-0.51 6.95,-0.51 5.9,0 10.62,0.68 14.16,2.02 2.16,0.82 3.24,2.31 3.24,4.46 0,1.21 -0.42,2.3 -1.28,3.23 -0.93,1.07 -2.12,1.61 -3.59,1.61z"/>
   <path id="11" class="fil0" d="M773.63 437.2c-1.28,0 -2.43,-0.49 -3.49,-1.47 -7.11,-6.67 -14.94,-11.3 -23.46,-13.88 0.25,6.82 0.37,10.61 0.37,11.36 0,1.34 -0.47,2.47 -1.4,3.39 -0.92,0.93 -2.08,1.4 -3.47,1.4 -1.4,0 -2.55,-0.47 -3.48,-1.4 -0.92,-0.92 -1.39,-2.05 -1.39,-3.39 0,-1.76 0.01,-4.39 0.05,-7.9 0.04,-3.51 0.05,-6.14 0.05,-7.91l0.05 -28.41c0,-1.53 0.45,-2.91 1.37,-4.15 1.2,-1.59 2.84,-2.31 4.96,-2.15 5.71,0.42 8.63,0.65 8.76,0.68 3.29,0.39 6.08,1.17 8.37,2.35 10.03,5.05 15.04,11.3 15.04,18.77 0,3.07 -1.05,5.8 -3.15,8.15 -2.1,2.36 -5.25,4.35 -9.46,5.96 6.23,3.49 10.9,7.03 14.05,10.65 0.82,0.94 1.23,1.98 1.23,3.12 0,1.33 -0.5,2.46 -1.48,3.41 -0.99,0.94 -2.16,1.42 -3.52,1.42zm-22.53 -44.28c-0.2,-0.02 -1.57,-0.11 -4.13,-0.28l0 18.68c0.59,0.02 1.11,0.04 1.55,0.04 5.75,0 10,-0.73 12.78,-2.16 1.19,-0.6 2.29,-1.41 3.29,-2.42 1,-1 1.49,-1.77 1.49,-2.29 0,-2.62 -1.67,-5.15 -5,-7.59 -3.16,-2.3 -6.5,-3.62 -9.98,-3.98z"/>
   <path id="12" class="fil0" d="M813.07 395.1c-1.13,0 -4.22,-0.32 -9.27,-0.94 -0.31,4.31 -0.47,10.06 -0.47,17.22l-0.03 15.8c3.12,-0.07 6.3,-0.11 9.53,-0.11 1.4,0 2.57,0.47 3.5,1.42 0.92,0.94 1.39,2.07 1.39,3.38 0,1.32 -0.47,2.44 -1.42,3.36 -0.95,0.93 -2.14,1.4 -3.58,1.4 -1.35,0 -3.37,0.02 -6.04,0.08 -2.7,0.06 -4.7,0.09 -6.05,0.09 -1.58,0 -3.96,0.2 -7.13,0.6 -3.16,0.39 -5.53,0.6 -7.12,0.6 -1.44,0 -2.63,-0.46 -3.58,-1.38 -0.95,-0.93 -1.42,-2.05 -1.42,-3.37 0,-1.31 0.49,-2.43 1.49,-3.36 0.98,-0.94 2.23,-1.41 3.74,-1.41 1.7,0 3.95,-0.17 6.74,-0.5 -0.05,-2.78 -0.07,-8.09 -0.07,-15.95 0,-6.4 0.24,-12.5 0.72,-18.3l-7.65 0.14c-1.41,0 -2.59,-0.46 -3.54,-1.36 -0.95,-0.91 -1.43,-2.04 -1.43,-3.39 0,-1.37 0.46,-2.48 1.37,-3.35 0.84,-0.78 1.87,-1.24 3.1,-1.36 2.01,-0.18 5.48,-0.27 10.44,-0.27 4.46,0 10.21,0.48 17.24,1.44 2.8,0.4 4.19,2.02 4.19,4.87 0,1.5 -0.54,2.69 -1.62,3.55 -0.89,0.74 -1.9,1.1 -3.03,1.1z"/>
   <path id="13" class="fil0" d="M860.2 430.67c-1.71,2.33 -3.77,4.26 -6.2,5.81 -2.96,1.88 -6,2.82 -9.12,2.82 -6,0 -10.44,-1.13 -13.36,-3.39 -6.16,-4.77 -9.23,-13.07 -9.23,-24.87 0,-1.13 0.05,-2.81 0.15,-5.04 0.1,-2.24 0.16,-3.92 0.16,-5.05 0,-0.9 0.01,-2.24 0.06,-4.03 0.04,-1.79 0.06,-3.12 0.06,-4.02 0,-1.85 0.34,-3.58 1.02,-5.23 0.93,-2.16 2.21,-3.25 3.87,-3.25 1.3,0 2.44,0.41 3.43,1.24 1.09,0.88 1.63,2 1.63,3.38 0,1.31 -0.01,3.29 -0.04,5.94 -0.02,2.65 -0.03,4.65 -0.03,5.97 0,1.1 -0.06,2.77 -0.18,5 -0.12,2.22 -0.18,3.89 -0.18,4.98 0,3.56 0.42,6.88 1.27,9.93 0.99,3.64 2.43,6.19 4.33,7.64 0.99,0.76 3.34,1.16 7.05,1.21 6.2,0.09 10.38,-5.18 12.55,-15.83 1.13,-5.52 1.69,-13.26 1.69,-23.23 0,-1.31 0.39,-2.57 1.17,-3.8 1.04,-1.62 2.54,-2.43 4.49,-2.43 1.6,0 2.8,0.59 3.6,1.76 0.61,0.88 0.91,1.84 0.91,2.9 0,9.26 -0.43,16.48 -1.3,21.67 -1.32,8.01 -3.92,14.64 -7.8,19.92z"/>
   <path id="14" class="fil0" d="M891.33 408.95c-1.06,3.8 -2.54,9.53 -4.45,17.21 -0.45,2.66 -0.88,5.29 -1.3,7.92 -0.96,3.33 -2.74,5 -5.33,5 -1.63,0 -2.91,-0.55 -3.85,-1.66 -0.81,-0.94 -1.2,-2.05 -1.2,-3.34 0,-3.81 0.82,-8.44 2.44,-13.9 2.41,-8.2 3.72,-12.74 3.92,-13.63 0.67,-3.62 1.37,-7.24 2.07,-10.85 1.06,-4.98 2.2,-8.3 3.44,-9.94 1.24,-1.66 2.79,-2.49 4.68,-2.49 2.14,0 3.71,1.08 4.72,3.25 0.94,2.04 1.95,6.21 3.03,12.53 1.02,6.13 2.56,12.73 4.6,19.79 2.68,-6.97 5.18,-14.61 7.47,-22.94l1.99 -8.1c1.27,-3.35 3.23,-5.03 5.89,-5.03 2.57,0 4.47,1.94 5.72,5.85 0.51,1.56 1.07,4.51 1.66,8.8 1.37,10.01 3.07,18.57 5.15,25.71 2.09,7.26 3.14,11.22 3.14,11.84 0,1.39 -0.56,2.55 -1.65,3.48 -1.03,0.86 -2.19,1.28 -3.48,1.28 -2.55,0 -4.45,-1.84 -5.69,-5.51l-1.99 -8.53c-1.14,-4.23 -2.37,-10.3 -3.7,-18.22 -1.06,3.14 -2.82,8.09 -5.27,14.82l-2.11 6.49c-0.87,2.56 -1.78,4.66 -2.72,6.3 -1.25,2.18 -2.99,3.28 -5.23,3.28 -2.21,0 -3.9,-1.3 -5.08,-3.91l-1.96 -6.55c-1.83,-6.02 -3.47,-12.33 -4.91,-18.95z"/>
   <circle class="fil1 str0" cx="525.3" cy="356.68" r="8.49"/>
   <circle class="fil1 str0" cx="525.3" cy="416.52" r="8.49"/>
   <circle class="fil1 str0" cx="525.3" cy="307.36" r="8.49"/>
  </g>
 </g>
</svg>
