<svg xmlns="http://www.w3.org/2000/svg" viewBox="0 0 121 83.63"><defs><style>.cls-1{fill:#fff;fill-rule:evenodd;}</style></defs><g id="Camada_2" data-name="Camada 2"><g id="Camada_1-2" data-name="Camada 1"><g id="Camada_1-3" data-name="Camada_1"><path class="cls-1" d="M49,23.42A79.68,79.68,0,0,1,56.82,28c2.25,1.39,21.09,12.55,22.23,14.14C76.55,43,61,53.08,56.54,55.77A79.26,79.26,0,0,1,49,60.21Zm-49,18V40.31C0,28.19,1.13,14.1,4.64,8.84s9-6.73,17.54-7.59C30,.46,38.93.22,46.86.13c16.07-.17,34.05-.39,49.9,1,9.62.83,13.62.9,18.76,6.51,4.16,4.54,4.49,13.68,5,20.86.74,11.37,1.5,38.43-4,46.25-3.79,5.4-8.86,6.78-17.61,7.65-18,1.81-57.54,1.43-74.58.2C2,81,2.19,73,.57,55.56.25,52.07,0,47,0,41.47Z"/></g></g></g></svg>