<svg xmlns="http://www.w3.org/2000/svg" viewBox="0 0 103.13 83.89"><defs><style>.cls-1{fill:#fff;fill-rule:evenodd;}</style></defs><g id="Camada_2" data-name="Camada 2"><g id="Camada_1-2" data-name="Camada 1"><g id="Camada_1-3" data-name="Camada_1"><path class="cls-1" d="M91.12,13.24a34.5,34.5,0,0,0,3-2.23,21.27,21.27,0,0,0,2.26-2.29c.1-.13.2-.21.31-.34a16.71,16.71,0,0,0,2.08-3.11,17.63,17.63,0,0,0,1.57-3.66,15.55,15.55,0,0,0-1.53.84A39,39,0,0,1,94,4.64c-1.51.59-5.64,2-7.17,2a6.09,6.09,0,0,0-1.11-1.1,14.65,14.65,0,0,0-1.18-1l-1.28-.94A20.2,20.2,0,0,0,75.62.43a21.21,21.21,0,0,0-15.75,3c-.44.29-.89.6-1.29.92-.22.18-.41.31-.63.47s-.37.38-.57.54a20.13,20.13,0,0,0-4.77,6.08A21.77,21.77,0,0,0,50.48,18a22.73,22.73,0,0,0,.29,8,46.17,46.17,0,0,1-7.43-.83,63.65,63.65,0,0,1-12.71-3.72c-2-.8-3.75-1.74-5.54-2.65-.93-.48-1.77-1-2.63-1.52a58.82,58.82,0,0,1-7.15-5.13c-.2-.16-.38-.32-.56-.48s-.36-.28-.58-.47l-1.05-1A54.17,54.17,0,0,1,7.6,4.46c-.1-.12-.11-.15-.23-.29l-.24-.23A18.18,18.18,0,0,0,5.5,7.39a20.45,20.45,0,0,0-1,4.06,21.4,21.4,0,0,0,4,15.77,20.48,20.48,0,0,0,3.74,3.87,13.43,13.43,0,0,1,1.4,1.05,19,19,0,0,1-5.25-.84,19.92,19.92,0,0,1-2.25-.8l-2-1A20.8,20.8,0,0,0,7.14,40.72a22.36,22.36,0,0,0,2.55,3.42l1.17,1.16a19,19,0,0,0,3.37,2.55A22.48,22.48,0,0,0,21,50.53a18,18,0,0,1-4.56.73,25.32,25.32,0,0,1-4.89-.35,21,21,0,0,0,2.88,5.79c.16.23.33.4.48.62a15.26,15.26,0,0,0,2.55,2.78c.21.18.37.33.59.51s.35.3.57.47a21.08,21.08,0,0,0,12.66,4.53c-.12.17-.18.17-.37.31a39,39,0,0,1-5.75,3.72A43.87,43.87,0,0,1,9.65,74.42c-4.52.51-5.56.13-9.65,0a67.39,67.39,0,0,0,6.6,3.68A62,62,0,0,0,14,81a59.54,59.54,0,0,0,17.82,2.88,63.3,63.3,0,0,0,18.27-2.42,66.53,66.53,0,0,0,7.55-2.77,55.6,55.6,0,0,0,6.74-3.59c.55-.34,1.06-.66,1.59-1,1.51-1,3-2.13,4.43-3.3l2.76-2.43c.46-.45.88-.8,1.34-1.26L77,64.46A62.56,62.56,0,0,0,92.62,20.89a39.54,39.54,0,0,0,5.74-5c.43-.47,1.59-1.67,1.94-2.16l1.18-1.48A17.66,17.66,0,0,0,103.13,10c-.38.08-2.15.87-2.75,1.08-.95.33-1.91.64-2.91.92a33,33,0,0,1-6.35,1.25Z"/></g></g></g></svg>