<svg xmlns="http://www.w3.org/2000/svg" viewBox="0 0 83.89 83.89"><defs><style>.cls-1{fill:#fff;fill-rule:evenodd;}</style></defs><g id="Camada_2" data-name="Camada 2"><g id="Camada_1-2" data-name="Camada 1"><g id="Camada_1-3" data-name="Camada_1"><path class="cls-1" d="M21.48,7.62c2.39-.29,31.18-.11,34.35-.11,6.06,0,10.2,0,14.19,3.08a15.75,15.75,0,0,1,6.24,10.83c.28,2.56.11,31.08.11,34.41,0,6,0,10.24-3.08,14.19a15.75,15.75,0,0,1-10.83,6.24c-2.56.28-31.08.11-34.41.11-6,0-10.23,0-14.19-3.08A15.73,15.73,0,0,1,7.62,62.46c-.28-2.56-.11-31.08-.11-34.41,0-6,0-10.25,3.08-14.19A15.76,15.76,0,0,1,21.48,7.62ZM22.15.14a23,23,0,0,0-21.83,20c-.48,3.28-.32,39-.19,41.65a23.08,23.08,0,0,0,20,21.82c3.27.48,39.05.32,41.65.18a23,23,0,0,0,21.82-20c.48-3.28.32-39,.19-41.65A23.06,23.06,0,0,0,63.78.32C60.52-.16,24.65,0,22.15.14Zm7.9,34.16.13-.29c-.09-.36-.2-.34.12-.28l.3-.21.11-.26.35-.2c0-.27-.11-.21.15-.22l.16-.2c0-.28-.11-.23.15-.21,0-.29-.12-.25.15-.21-.05-.3-.12-.25.16-.2,0-.31-.12-.25.19-.19-.05-.28-.1-.21.2-.16,0-.27-.08-.19.21-.15,0-.26-.07-.19.21-.16l.2-.15c0-.26-.05-.19.23-.15l.19-.35.26-.11.21-.3c-.06-.33-.08-.21.28-.12l.29-.13c2.4-1.25,4.13-2.23,7.55-2.25s5.28,1,7.73,2.25l.29.13c.36-.09.34-.21.27.12l.22.3.26.11.19.35c.28,0,.22-.11.23.15l.2.15c.28,0,.22-.1.21.16.29,0,.25-.12.21.15.3-.05.25-.12.2.16.3-.06.24-.12.19.19.28-.05.21-.1.16.2.27,0,.19-.08.15.21.26,0,.19-.07.15.21l.16.2c.26,0,.19-.05.15.22l.35.2.11.26.3.21c.32-.06.21-.08.12.28l.13.29c1.25,2.4,2.23,4.13,2.25,7.55s-1,5.28-2.25,7.73a.61.61,0,0,0,0,.17l-.26.51a17.22,17.22,0,0,1-2.64,2.63c-.94.91-.44.71-1.32.94-2.36,1.26-4.16,2.22-7.54,2.25s-5.28-1-7.73-2.25L34,53.74c-.41-.2,0,0-.36-.21a6.87,6.87,0,0,1-.54-.54c-.43-.45-.83-.6-1.21-1s-.45-.69-.87-1.13c-.93-1-.71-.43-.94-1.31-1.24-2.36-2.23-4.16-2.25-7.55s1-5.32,2.25-7.73ZM55.38,58.75s.09-.15.11-.12.07-.08.1-.1l3.16-3.15a21.61,21.61,0,0,0,0-26.88c-.34,0-.26.08-.2-.27-.26,0-.19.06-.14-.22-.27,0-.19.07-.15-.22-.28,0-.21.08-.15-.21a3.14,3.14,0,0,1-.58-.33c-.29.05-.21.1-.16-.2-.28.05-.21.09-.16-.2-.28,0-.22.1-.18-.18-.3,0-.25.12-.2-.16-.3,0-.25.12-.2-.16a4.13,4.13,0,0,1-.34-.58c-.28.06-.23.12-.2-.15-.29,0-.24.12-.22-.15-.28.05-.23.12-.22-.14-.35.06-.27.14-.27-.2C42.44,14.31,20.5,23,20.38,41.85s21.9,27.85,35,16.9Zm7.83-44.47c-7.5,2.16-4,12.3,2.6,10.48a5.4,5.4,0,0,0-2.6-10.48ZM49.57,53.83c.88-.23.38,0,1.32-.94a17.22,17.22,0,0,0,2.64-2.63l.26-.51a.61.61,0,0,1,0-.17l-.93,1.14c-.48.49-.63.79-1,1.17Zm-15.27,0-1.14-.93c-.49-.48-.79-.63-1.17-1L30.39,50a.76.76,0,0,0-.08-.11l-.26-.34c.23.88,0,.36.94,1.31.42.44.51.77.87,1.13s.78.52,1.21,1a6.87,6.87,0,0,0,.54.54c.31.23,0,0,.36.21l.33.09Zm21.08,4.92a12.42,12.42,0,0,0,3.37-3.37l-3.16,3.15s-.09.14-.1.1-.07.08-.11.12Zm.27-33.42c0,.26-.06.19.22.14,0,.27-.07.19.22.15,0,.27-.08.21.2.15a4.13,4.13,0,0,0,.34.58c-.05.28-.1.21.2.16,0,.28-.1.21.2.16,0,.28-.1.21.18.18-.05.29-.12.25.16.2,0,.3-.13.25.16.2a3.14,3.14,0,0,0,.58.33c-.06.29-.13.24.15.21,0,.29-.12.23.15.22,0,.28-.12.23.14.22-.06.35-.14.27.2.27l-.2-.27c.06-.29.13-.24-.14-.22.05-.29.12-.24-.15-.22.05-.29.13-.24-.15-.21a1.61,1.61,0,0,0-.58-.33c.06-.29.13-.24-.16-.2.05-.29.12-.24-.16-.2,0-.29.11-.23-.18-.18,0-.28.09-.21-.2-.16,0-.29.09-.22-.2-.16a1.52,1.52,0,0,0-.34-.58c0-.28.09-.2-.2-.15,0-.28.07-.2-.22-.15,0-.27.07-.2-.22-.14l-.27-.2C55.38,25.47,55.3,25.39,55.65,25.33Zm-5.78,4.85c0,.29,0,.2.27.12l.22.3.26.11.19.35.23.15c0,.25-.06.19.2.15,0,.27-.06.2.21.16,0,.27-.07.21.21.15,0,.29-.09.22.2.16,0,.29-.1.23.19.19-.06.29-.13.23.16.2-.06.28-.13.23.15.21,0,.27-.11.21.15.21,0,.26-.09.2.16.2l.15.22.35.2.11.26.3.21c-.08.33-.17.27.12.28-.1.35-.2.29.13.29L53.7,34c.09-.36.2-.34-.12-.28l-.3-.21-.11-.26-.35-.2c0-.27.11-.21-.15-.22l-.16-.2c0-.28.11-.23-.15-.21,0-.29.12-.25-.15-.21,0-.3.12-.25-.16-.2.05-.31.11-.25-.19-.19,0-.28.1-.21-.2-.16,0-.27.08-.19-.21-.15,0-.26.07-.19-.21-.16l-.2-.15c0-.26.05-.19-.23-.15l-.19-.35-.26-.11-.22-.3c.07-.33.09-.21-.27-.12l-.29-.13C49.58,30.38,49.52,30.28,49.87,30.18Zm-16.14.12-.21.3-.26.11-.19.35c-.28,0-.22-.11-.23.15l-.2.15c-.28,0-.23-.1-.21.16-.29,0-.25-.12-.21.15-.3-.05-.25-.12-.2.16-.31-.06-.24-.12-.19.19-.28-.05-.21-.1-.16.2-.27,0-.19-.08-.15.21-.26,0-.19-.07-.15.21l-.16.2c-.26,0-.19-.05-.15.22l-.35.2-.11.26-.3.21c-.32-.06-.21-.08-.12.28l-.13.29c.33,0,.23.06.13-.29.29,0,.2.05.12-.28l.3-.21.11-.26.35-.2.15-.22c.25,0,.19.06.16-.2.26,0,.2.06.15-.21.27,0,.21.07.15-.21.29,0,.22.09.16-.2.29,0,.23.1.19-.19.29.06.23.13.2-.16.28.06.23.12.21-.15.27,0,.21.11.21-.16.26,0,.2.1.2-.15l.23-.15.19-.35.26-.11.21-.3c.33.08.28.17.28-.12.35.1.29.2.29-.13l-.29.13C33.65,30.09,33.67,30,33.73,30.3Z"/></g></g></g></svg>