<svg xmlns="http://www.w3.org/2000/svg" viewBox="0 0 80.59 83.89"><defs><style>.cls-1{fill:#fff;fill-rule:evenodd;}</style></defs><g id="Camada_2" data-name="Camada 2"><g id="Camada_1-2" data-name="Camada 1"><g id="Camada_1-3" data-name="Camada_1"><path class="cls-1" d="M40.26,59.73c-1.2,1.34-10,10.26-11.21,10.85L28.83,60.1,13.14,60c-.78-1.13-.34-5.35-.34-6.83,0-7.7-.49-43.48.17-45.52l58.34-.41a7,7,0,0,1,.94.07c.83.24.2-.07.66.43-.39,8.71-.09,26.37,0,36.59,0,4.64.21,3.08-6.35,9.64-1,1-4.6,4.86-5.42,5.38-1.68,1.06-17.55.44-20.85.35ZM.63,14.31.54,72.39H20.62l-.06,10.87,10.77,0,.35-.31.33-.33.33-.32.32-.33.33-.32.33-.33.33-.32L34,80.7l.32-.33.34-.32.32-.33.33-.33.33-.33.33-.31.34-.32.34-.32c0-.45-.13-.34.32-.33,0-.45-.12-.34.33-.32,0-.45-.12-.35.34-.33,0-.45-.13-.34.32-.32,0-.46-.13-.35.32-.34,0-.45-.12-.34.33-.32,0-.45-.12-.34.33-.33,0-.45-.12-.35.33-.32,0-.46-.12-.35.33-.33,0-.45-.12-.34.33-.32,0-.46-.12-.35.33-.33,0-.46-.13-.35.32-.33,0-.45-.12-.35.33-.32,0-.46-.12-.35.34-.33,0-.45-.14-.35.32-.33,0-.45-.13-.34.33-.32,0-.51-.11-.34.49-.33,4.51,0,9,0,13.54,0s3.06.19,8.54-5.27c4.72-4.7,9.21-9.17,14-13.87,1.86-1.84,2.09-1.23,2.06-4.81V13.92c0-3.25.4-11.22-.15-13.92H5.73L.63,14.31Zm32.53,29.4,7.29-.05V21.72l-7.31.17,0,21.82Zm20.23-.17,7,.05,0-21.73-7,0ZM20.56,83.26c.53.62.5.5,2.28.48,2.38,0,6.61.58,8.49-.45.46,0,.35.14.35-.31l.33-.33.33-.32.32-.33.33-.32.33-.33.33-.32L34,80.7l.32-.33.34-.32.32-.33.33-.33.33-.33.33-.31.34-.32c.46,0,.35.13.34-.32.45,0,.34.12.32-.33l.33-.32c.46,0,.35.13.34-.33.45,0,.34.13.32-.32.45,0,.34.12.32-.34.46,0,.35.13.33-.32.46,0,.35.13.33-.33.45,0,.35.12.33-.32.46,0,.35.13.33-.33.45,0,.34.13.33-.32.46,0,.35.13.33-.33.45,0,.34.12.32-.33l.33-.32c.47,0,.36.13.34-.33.45,0,.34.13.32-.33.46,0,.35.13.33-.32.6,0,.49.2.49-.33-.6,0-.5-.18-.49.33-.46,0-.35-.13-.33.32-.46,0-.35-.12-.32.33-.46,0-.35-.13-.34.33-.45,0-.34-.13-.33.32-.45,0-.34-.13-.32.33-.45,0-.34-.13-.33.33-.45,0-.35-.13-.33.32-.45,0-.34-.13-.33.33-.45,0-.35-.13-.33.32-.45,0-.34-.12-.33.33-.45,0-.34-.13-.33.32-.45,0-.34-.12-.32.34-.45,0-.34-.13-.32.32-.46,0-.35-.12-.34.33-.45,0-.34-.13-.33.32-.45,0-.34-.12-.32.33l-.34.32-.34.32-.33.31-.33.33-.33.33-.32.33-.34.32L34,80.7l-.33.33-.33.32-.33.33-.33.32-.32.33-.33.32-.33.33-.35.31-10.77,0,.06-10.87H.54L.63,14.31c-1.08,1.07-.45,12-.45,14.34,0,5.83-.32,41.4.17,44l20.11,0,.1,10.61ZM13.14,60,13,7.68l59.94.09c-.46-.5.17-.19-.66-.43a7,7,0,0,0-.94-.07L13,7.68c-.66,2-.18,37.82-.17,45.52,0,1.48-.44,5.7.34,6.83ZM60.39,21.86l0,21.73-7-.05c1,.69,3.67.3,5.13.3,1,0,1.16.16,1.84-.25.88-1,.37-14.94.37-17.56,0-.89.43-3.72-.34-4.17s-6.16-.45-7,0ZM28.83,60.1l.22,10.48c1.2-.59,10-9.51,11.21-10.85-1.64.82-8.89,8.77-10.89,10.4l0-6.46C29.35,61.32,29.66,60.91,28.83,60.1Z"/></g></g></g></svg>